<svg width="58" height="53" viewBox="0 0 58 53" fill="none" xmlns="http://www.w3.org/2000/svg">
<path d="M0 0L58 0L58 23.3209C58 39.2704 44.9495 52.2 29 52.2C13.0505 52.2 0 39.2704 0 23.3209L0 0Z" fill="#3A4DE9"/>
<path d="M30.52 39.1523C30.52 38.3129 29.8394 37.6324 29 37.6324C28.1606 37.6324 27.48 38.3129 27.48 39.1523L30.52 39.1523ZM27.9252 40.9521C28.5188 41.5457 29.4812 41.5457 30.0748 40.9521L39.7477 31.2792C40.3413 30.6856 40.3413 29.7232 39.7477 29.1297C39.1541 28.5361 38.1917 28.5361 37.5982 29.1297L29 37.7278L20.4018 29.1297C19.8083 28.5361 18.8459 28.5361 18.2523 29.1297C17.6587 29.7232 17.6587 30.6856 18.2523 31.2792L27.9252 40.9521ZM29 39.1523L27.48 39.1523L27.48 39.8773L29 39.8773L30.52 39.8773L30.52 39.1523L29 39.1523Z" fill="white"/>
<path d="M30.52 5.07422C30.52 4.23477 29.8394 3.55427 29 3.55427C28.1606 3.55427 27.48 4.23477 27.48 5.07422L30.52 5.07422ZM27.9252 28.624C28.5188 29.2176 29.4812 29.2176 30.0748 28.624L39.7477 18.9511C40.3413 18.3575 40.3413 17.3951 39.7477 16.8015C39.1541 16.2079 38.1917 16.2079 37.5982 16.8015L29 25.3997L20.4018 16.8015C19.8083 16.208 18.8459 16.208 18.2523 16.8015C17.6587 17.3951 17.6587 18.3575 18.2523 18.9511L27.9252 28.624ZM29 5.07422L27.48 5.07422L27.48 27.5492L29 27.5492L30.52 27.5492L30.52 5.07422L29 5.07422Z" fill="white"/>
</svg>
