<svg width="196" height="77" viewBox="0 0 196 77" fill="none" xmlns="http://www.w3.org/2000/svg">
<path d="M175.259 75.7414C176.22 76.7031 177.78 76.7031 178.741 75.7414L194.415 60.0683C195.376 59.1065 195.376 57.5471 194.415 56.5853C193.453 55.6236 191.893 55.6236 190.932 56.5853L177 70.517L163.068 56.5853C162.107 55.6236 160.547 55.6236 159.585 56.5853C158.624 57.5471 158.624 59.1065 159.585 60.0683L175.259 75.7414ZM0.5 3.3999V5.86269H167V3.3999V0.937112H0.5V3.3999ZM177 13.3999H174.537V73.9999H177H179.463V13.3999H177ZM167 3.3999V5.86269C171.163 5.86269 174.537 9.23722 174.537 13.3999H177H179.463C179.463 6.5169 173.883 0.937112 167 0.937112V3.3999Z" fill="url(#paint0_linear_20_2148)"/>
<defs>
<linearGradient id="paint0_linear_20_2148" x1="0.910475" y1="3.39989" x2="177.41" y2="106.016" gradientUnits="userSpaceOnUse">
<stop stop-color="#212B83" stop-opacity="0"/>
<stop offset="1" stop-color="#3A4DE9"/>
</linearGradient>
</defs>
</svg>
