<svg width="331" height="8" viewBox="0 0 331 8" fill="none" xmlns="http://www.w3.org/2000/svg">
<path d="M3.71121 4.69135C2.01673 4.76042 0.38056 4.52372 0.0562408 4.16298C-0.268079 3.80211 0.843353 3.45365 2.53722 3.38458C51.2683 1.36189 106.417 0.275397 161.764 0.0461981C219.434 -0.192831 277.297 0.499551 328.305 2.03358C330.013 2.08389 331.206 2.41967 330.97 2.78339C330.734 3.14711 329.157 3.40127 327.449 3.35095C276.712 1.82507 219.181 1.13644 161.861 1.37392C106.918 1.60144 52.1435 2.68121 3.71121 4.69148V4.69135ZM41.3596 7.96636C39.7259 8.08122 37.9634 7.8925 37.424 7.54456C36.8847 7.19663 37.7708 6.82127 39.4046 6.70641C65.0586 4.88744 102.627 3.69928 142.233 3.06019C188.29 2.31684 237.202 2.31141 273.335 2.91674C275.056 2.94546 276.342 3.2661 276.208 3.63267C276.073 3.99923 274.567 4.27318 272.846 4.24447C236.996 3.64379 188.44 3.64961 142.697 4.38791C103.505 5.02028 66.4506 6.18748 41.3596 7.96649V7.96636Z" fill="#FFB838"/>
</svg>
