<svg width="635" height="16" viewBox="0 0 635 16" fill="none" xmlns="http://www.w3.org/2000/svg">
<path d="M7.11688 9.58671C3.86743 9.71379 0.729789 9.27829 0.107851 8.61458C-0.514086 7.95063 1.61727 7.30953 4.86556 7.18245C98.3158 3.461 204.073 1.46201 310.209 1.04032C420.802 0.600542 531.763 1.87442 629.581 4.6968C632.856 4.78938 635.145 5.40716 634.691 6.07634C634.238 6.74553 631.215 7.21315 627.94 7.12058C530.643 4.31319 420.316 3.04621 310.396 3.48313C205.034 3.90173 99.994 5.88834 7.11688 9.58695V9.58671ZM79.314 15.6122C76.1811 15.8236 72.8012 15.4763 71.7669 14.8362C70.7327 14.196 72.432 13.5054 75.5649 13.2941C124.761 9.94748 196.805 7.76144 272.755 6.58561C361.077 5.21797 454.876 5.20797 524.166 6.3217C527.467 6.37453 529.933 6.96447 529.675 7.63889C529.416 8.31331 526.529 8.81734 523.228 8.76451C454.48 7.65935 361.365 7.67006 273.646 9.02842C198.488 10.1919 127.43 12.3394 79.314 15.6125V15.6122Z" fill="#FFB838"/>
</svg>
