<svg width="228" height="59" viewBox="0 0 228 59" fill="none" xmlns="http://www.w3.org/2000/svg">
<path d="M40.7433 27.1593C39.9449 37.9581 33.1241 47.4764 23.0021 51.6496L20.8868 52.5216L18.7716 51.6496C15.3824 50.2523 12.3066 48.126 9.75989 45.6828H21.1818C28.6818 42.3596 33.7556 35.248 34.5197 27.1593H40.7433ZM13.4152 24.589C17.8738 14.8518 34.9518 19.2309 40.6779 22.2873C31.2525 20.0319 29.4221 22.2807 29.3859 24.5548C30.1683 25.9086 30.6193 27.4784 30.6193 29.1544C30.6192 30.917 30.1227 32.5634 29.2638 33.963C24.6556 43.4045 8.55623 39.3875 2.8761 36.3556C12.391 38.6324 13.4039 35.9986 13.4054 33.7023C12.6414 32.3604 12.2033 30.809 12.2032 29.1544C12.2032 27.4927 12.6451 25.9349 13.4152 24.589ZM20.8868 5.7521C26.7317 5.7521 31.2288 6.60975 34.3146 7.49722C35.8559 7.94044 37.042 8.3902 37.8663 8.74234C38.2782 8.91825 38.6003 9.06968 38.8302 9.18374L39.2404 9.39859C39.751 9.71773 40.2977 9.99516 40.8224 10.2912V16.6515C39.5627 16.1287 38.1693 15.5501 37.173 15.1017C36.1767 14.6534 34.0145 13.9029 33.8605 13.8507C33.6142 13.7674 33.3483 13.6817 33.0636 13.5949C32.9145 13.5493 32.7594 13.5041 32.5997 13.4582C30.0371 12.7213 26.1171 11.9543 20.8868 11.9543C15.6565 11.9543 11.7366 12.7213 9.17395 13.4582C8.72892 13.5862 8.32349 13.7128 7.96008 13.8351C7.66399 13.9347 7.39506 14.0314 7.15344 14.1222V25.0275C7.15344 27.7212 7.63175 30.3368 8.52258 32.7755H2.01184C1.31796 30.2918 0.951294 27.6896 0.951294 25.0275V10.2912L2.52844 9.40054L2.74622 9.78433C2.53008 9.40018 2.5308 9.39985 2.53137 9.39956L2.53333 9.39859L2.53821 9.39566L2.5509 9.38882L2.58118 9.37222L2.66711 9.32534C2.73604 9.28857 2.82841 9.24085 2.94348 9.18374L3.13196 9.09292L3.33411 8.99722C3.50013 8.92027 3.69152 8.83455 3.90735 8.74234C4.73163 8.3902 5.91776 7.94045 7.45911 7.49722C10.5449 6.60975 15.042 5.75211 20.8868 5.7521Z" fill="#010101"/>
<path d="M40.7433 27.1593C39.9449 37.9581 33.1241 47.4764 23.0021 51.6496L20.8868 52.5216L18.7716 51.6496C15.3824 50.2523 12.3066 48.126 9.75989 45.6828H21.1818C28.6818 42.3596 33.7556 35.248 34.5197 27.1593H40.7433ZM13.4152 24.589C17.8738 14.8518 34.9518 19.2309 40.6779 22.2873C31.2525 20.0319 29.4221 22.2807 29.3859 24.5548C30.1683 25.9086 30.6193 27.4784 30.6193 29.1544C30.6192 30.917 30.1227 32.5634 29.2638 33.963C24.6556 43.4045 8.55623 39.3875 2.8761 36.3556C12.391 38.6324 13.4039 35.9986 13.4054 33.7023C12.6414 32.3604 12.2033 30.809 12.2032 29.1544C12.2032 27.4927 12.6451 25.9349 13.4152 24.589ZM20.8868 5.7521C26.7317 5.7521 31.2288 6.60975 34.3146 7.49722C35.8559 7.94044 37.042 8.3902 37.8663 8.74234C38.2782 8.91825 38.6003 9.06968 38.8302 9.18374L39.2404 9.39859C39.751 9.71773 40.2977 9.99516 40.8224 10.2912V16.6515C39.5627 16.1287 38.1693 15.5501 37.173 15.1017C36.1767 14.6534 34.0145 13.9029 33.8605 13.8507C33.6142 13.7674 33.3483 13.6817 33.0636 13.5949C32.9145 13.5493 32.7594 13.5041 32.5997 13.4582C30.0371 12.7213 26.1171 11.9543 20.8868 11.9543C15.6565 11.9543 11.7366 12.7213 9.17395 13.4582C8.72892 13.5862 8.32349 13.7128 7.96008 13.8351C7.66399 13.9347 7.39506 14.0314 7.15344 14.1222V25.0275C7.15344 27.7212 7.63175 30.3368 8.52258 32.7755H2.01184C1.31796 30.2918 0.951294 27.6896 0.951294 25.0275V10.2912L2.52844 9.40054L2.74622 9.78433C2.53008 9.40018 2.5308 9.39985 2.53137 9.39956L2.53333 9.39859L2.53821 9.39566L2.5509 9.38882L2.58118 9.37222L2.66711 9.32534C2.73604 9.28857 2.82841 9.24085 2.94348 9.18374L3.13196 9.09292L3.33411 8.99722C3.50013 8.92027 3.69152 8.83455 3.90735 8.74234C4.73163 8.3902 5.91776 7.94045 7.45911 7.49722C10.5449 6.60975 15.042 5.75211 20.8868 5.7521Z" fill="url(#paint0_linear_1_411)"/>
<path d="M78.7327 21.9053C78.5951 20.5178 78.0045 19.44 76.9611 18.6717C75.9176 17.9034 74.5015 17.5193 72.7127 17.5193C71.4972 17.5193 70.471 17.6913 69.6339 18.0353C68.7968 18.3678 68.1547 18.8322 67.7075 19.4285C67.2718 20.0248 67.0539 20.7013 67.0539 21.4581C67.031 22.0888 67.1628 22.6392 67.4495 23.1093C67.7476 23.5794 68.1547 23.9865 68.6707 24.3305C69.1867 24.663 69.783 24.9554 70.4595 25.2077C71.136 25.4485 71.8584 25.6549 72.6267 25.8269L75.7915 26.5837C77.328 26.9277 78.7384 27.3863 80.0227 27.9597C81.3069 28.533 82.4192 29.2382 83.3595 30.0753C84.2997 30.9123 85.0278 31.8985 85.5438 33.0337C86.0713 34.1688 86.3408 35.4703 86.3522 36.938C86.3408 39.0938 85.7904 40.9628 84.701 42.5452C83.6232 44.1161 82.0637 45.3373 80.0227 46.2088C77.9931 47.0688 75.5449 47.4988 72.6783 47.4988C69.8346 47.4988 67.3578 47.0631 65.2479 46.1916C63.1495 45.3201 61.5098 44.0301 60.3287 42.3216C59.1591 40.6016 58.5457 38.4746 58.4883 35.9404H65.6951C65.7754 37.1215 66.1136 38.1076 66.7099 38.8988C67.3176 39.6786 68.126 40.2691 69.1351 40.6704C70.1556 41.0603 71.308 41.2552 72.5923 41.2552C73.8536 41.2552 74.9487 41.0718 75.8775 40.7048C76.8177 40.3379 77.5459 39.8276 78.0619 39.174C78.5779 38.5204 78.8359 37.7694 78.8359 36.9208C78.8359 36.1296 78.6008 35.4646 78.1307 34.9256C77.672 34.3867 76.9955 33.928 76.1011 33.5496C75.2181 33.1712 74.1346 32.8273 72.8503 32.5177L69.0147 31.5545C66.0448 30.8321 63.6999 29.7026 61.9799 28.1661C60.2599 26.6295 59.4057 24.5598 59.4171 21.9569C59.4057 19.8241 59.9733 17.9608 61.1199 16.3669C62.2781 14.7731 63.8662 13.5289 65.8843 12.6345C67.9024 11.7401 70.1958 11.2929 72.7643 11.2929C75.3787 11.2929 77.6605 11.7401 79.6099 12.6345C81.5707 13.5289 83.0957 14.7731 84.1851 16.3669C85.2744 17.9608 85.8362 19.8069 85.8706 21.9053H78.7327ZM103.161 47.516C100.489 47.516 98.1786 46.9484 96.2293 45.8132C94.2914 44.6665 92.7951 43.0727 91.7401 41.0316C90.6852 38.9791 90.1577 36.5998 90.1577 33.8936C90.1577 31.1646 90.6852 28.7795 91.7401 26.7385C92.7951 24.6859 94.2914 23.0921 96.2293 21.9569C98.1786 20.8102 100.489 20.2369 103.161 20.2369C105.833 20.2369 108.137 20.8102 110.075 21.9569C112.025 23.0921 113.527 24.6859 114.582 26.7385C115.637 28.7795 116.164 31.1646 116.164 33.8936C116.164 36.5998 115.637 38.9791 114.582 41.0316C113.527 43.0727 112.025 44.6665 110.075 45.8132C108.137 46.9484 105.833 47.516 103.161 47.516ZM103.195 41.84C104.411 41.84 105.426 41.496 106.24 40.808C107.054 40.1086 107.667 39.1568 108.08 37.9528C108.504 36.7488 108.716 35.3786 108.716 33.842C108.716 32.3055 108.504 30.9353 108.08 29.7313C107.667 28.5273 107.054 27.5755 106.24 26.8761C105.426 26.1766 104.411 25.8269 103.195 25.8269C101.968 25.8269 100.936 26.1766 100.099 26.8761C99.2737 27.5755 98.6488 28.5273 98.2245 29.7313C97.8117 30.9353 97.6053 32.3055 97.6053 33.842C97.6053 35.3786 97.8117 36.7488 98.2245 37.9528C98.6488 39.1568 99.2737 40.1086 100.099 40.808C100.936 41.496 101.968 41.84 103.195 41.84ZM134.981 20.5809V26.0849H119.071V20.5809H134.981ZM122.683 14.2513H130.01V38.8816C130.01 39.5582 130.113 40.0856 130.32 40.464C130.526 40.831 130.813 41.089 131.18 41.238C131.558 41.3871 131.994 41.4616 132.487 41.4616C132.831 41.4616 133.175 41.433 133.519 41.3756C133.863 41.3068 134.127 41.2552 134.31 41.2208L135.462 46.6732C135.095 46.7879 134.579 46.9197 133.914 47.0688C133.249 47.2293 132.441 47.3268 131.489 47.3612C129.723 47.43 128.175 47.1949 126.845 46.656C125.527 46.1171 124.5 45.28 123.766 44.1448C123.033 43.0096 122.671 41.5763 122.683 39.8448V14.2513ZM151.51 47.516C148.792 47.516 146.453 46.9656 144.492 45.8648C142.543 44.7525 141.041 43.1816 139.986 41.152C138.931 39.111 138.404 36.6972 138.404 33.9108C138.404 31.1933 138.931 28.8082 139.986 26.7557C141.041 24.7031 142.526 23.1036 144.441 21.9569C146.367 20.8102 148.626 20.2369 151.218 20.2369C152.96 20.2369 154.583 20.5178 156.085 21.0797C157.599 21.6301 158.917 22.4614 160.041 23.5737C161.176 24.6859 162.059 26.0849 162.69 27.7705C163.321 29.4446 163.636 31.4054 163.636 33.6528V35.6652H141.328V31.1245H156.739C156.739 30.0695 156.509 29.135 156.051 28.3209C155.592 27.5067 154.956 26.8703 154.141 26.4117C153.339 25.9415 152.404 25.7065 151.338 25.7065C150.226 25.7065 149.24 25.9645 148.38 26.4805C147.531 26.985 146.866 27.6673 146.384 28.5273C145.903 29.3758 145.656 30.3218 145.645 31.3653V35.6824C145.645 36.9896 145.886 38.1191 146.367 39.0708C146.86 40.0226 147.554 40.7564 148.448 41.2724C149.343 41.7884 150.403 42.0464 151.63 42.0464C152.444 42.0464 153.19 41.9318 153.866 41.7024C154.543 41.4731 155.122 41.1291 155.603 40.6704C156.085 40.2118 156.452 39.6499 156.704 38.9848L163.481 39.432C163.137 41.0603 162.432 42.4821 161.365 43.6976C160.311 44.9016 158.946 45.8419 157.272 46.5184C155.609 47.1835 153.689 47.516 151.51 47.516ZM168.417 47V20.5809H175.521V25.1905H175.796C176.278 23.5508 177.086 22.3124 178.221 21.4753C179.357 20.6268 180.664 20.2025 182.143 20.2025C182.51 20.2025 182.906 20.2254 183.33 20.2713C183.754 20.3172 184.127 20.3802 184.448 20.4605V26.9621C184.104 26.8589 183.628 26.7671 183.02 26.6869C182.412 26.6066 181.856 26.5665 181.352 26.5665C180.274 26.5665 179.311 26.8015 178.462 27.2717C177.625 27.7303 176.96 28.3725 176.467 29.1981C175.985 30.0237 175.745 30.9754 175.745 32.0533V47H168.417ZM188.236 47V20.5809H195.563V47H188.236ZM191.917 17.1753C190.828 17.1753 189.893 16.8141 189.113 16.0917C188.345 15.3578 187.961 14.4807 187.961 13.4601C187.961 12.4511 188.345 11.5853 189.113 10.8629C189.893 10.1291 190.828 9.76213 191.917 9.76213C193.006 9.76213 193.935 10.1291 194.703 10.8629C195.483 11.5853 195.873 12.4511 195.873 13.4601C195.873 14.4807 195.483 15.3578 194.703 16.0917C193.935 16.8141 193.006 17.1753 191.917 17.1753ZM208.966 47.4988C207.281 47.4988 205.779 47.2064 204.46 46.6216C203.141 46.0253 202.098 45.1481 201.33 43.99C200.573 42.8204 200.194 41.3642 200.194 39.6212C200.194 38.1535 200.464 36.9208 201.003 35.9232C201.542 34.9256 202.276 34.123 203.204 33.5152C204.133 32.9075 205.188 32.4489 206.369 32.1393C207.562 31.8297 208.811 31.6118 210.119 31.4857C211.655 31.3251 212.894 31.1761 213.834 31.0385C214.774 30.8894 215.456 30.6715 215.881 30.3849C216.305 30.0982 216.517 29.6739 216.517 29.1121V29.0089C216.517 27.9195 216.173 27.0767 215.485 26.4805C214.809 25.8842 213.845 25.5861 212.595 25.5861C211.277 25.5861 210.228 25.8785 209.448 26.4633C208.668 27.0366 208.152 27.759 207.9 28.6305L201.123 28.0801C201.467 26.4747 202.144 25.0873 203.153 23.9177C204.162 22.7366 205.463 21.8308 207.057 21.2001C208.662 20.558 210.52 20.2369 212.63 20.2369C214.098 20.2369 215.502 20.4089 216.844 20.7529C218.197 21.0969 219.395 21.6301 220.439 22.3525C221.494 23.0749 222.325 24.0037 222.933 25.1389C223.54 26.2626 223.844 27.6099 223.844 29.1809V47H216.895V43.3364H216.689C216.265 44.162 215.697 44.8901 214.986 45.5208C214.275 46.14 213.421 46.6273 212.423 46.9828C211.426 47.3268 210.273 47.4988 208.966 47.4988ZM211.065 42.442C212.143 42.442 213.094 42.2299 213.92 41.8056C214.745 41.3699 215.393 40.7851 215.863 40.0512C216.334 39.3174 216.569 38.486 216.569 37.5572V34.7536C216.339 34.9027 216.024 35.0403 215.623 35.1664C215.233 35.2811 214.791 35.39 214.298 35.4932C213.805 35.585 213.312 35.671 212.819 35.7512C212.326 35.82 211.879 35.8831 211.477 35.9404C210.617 36.0666 209.866 36.2672 209.224 36.5424C208.582 36.8176 208.083 37.1903 207.728 37.6604C207.372 38.1191 207.195 38.6924 207.195 39.3804C207.195 40.378 207.556 41.1406 208.278 41.668C209.012 42.184 209.941 42.442 211.065 42.442Z" fill="white"/>
<defs>
<linearGradient id="paint0_linear_1_411" x1="33.3417" y1="9.7357" x2="4.75807" y2="54.7197" gradientUnits="userSpaceOnUse">
<stop stop-color="#FFB838"/>
<stop offset="1" stop-color="#D87025"/>
</linearGradient>
</defs>
</svg>
