<svg width="332" height="15" viewBox="0 0 332 15" fill="none" xmlns="http://www.w3.org/2000/svg">
<path d="M3.72242 8.79628C2.02283 8.92579 0.38171 8.48198 0.0564107 7.80559C-0.268889 7.12895 0.845901 6.4756 2.54489 6.34609C51.4232 2.55355 106.739 0.516369 162.252 0.0866214C220.097 -0.361558 278.134 0.936658 329.297 3.81296C331.01 3.9073 332.207 4.53688 331.97 5.21885C331.733 5.90082 330.152 6.37738 328.439 6.28304C277.548 3.42201 219.843 2.13083 162.35 2.5761C107.241 3.0027 52.3011 5.02726 3.72242 8.79653V8.79628ZM41.4846 14.9369C39.8459 15.1523 38.0781 14.7984 37.5371 14.1461C36.9962 13.4937 37.8849 12.7899 39.5236 12.5745C65.2552 9.16395 102.937 6.93615 142.662 5.73785C188.859 4.34408 237.919 4.33389 274.161 5.46889C275.887 5.52273 277.177 6.12394 277.042 6.81125C276.907 7.49855 275.397 8.01221 273.67 7.95837C237.712 6.83211 189.009 6.84302 143.128 8.22733C103.818 9.41302 66.6514 11.6015 41.4846 14.9372V14.9369Z" fill="#FFB838"/>
</svg>
